<svg width="27" height="21" viewBox="0 0 27 21" fill="none" xmlns="http://www.w3.org/2000/svg">
<path d="M19.1655 0H23.1948C25.2964 0 27.0002 1.73111 27.0002 3.86632V7.96012C27.0002 10.0953 25.2964 11.8264 23.1948 11.8264H22.7962C22.462 11.8264 22.1489 11.994 21.9593 12.2744C21.7706 12.5548 21.7291 12.9119 21.8499 13.2287L24.1226 19.2126C24.2434 19.5298 24.202 19.8868 24.0133 20.1668C23.8237 20.4472 23.5106 20.6148 23.1764 20.6148H20.5007C20.1233 20.6148 19.7767 20.4015 19.6021 20.062L16.3717 13.7917C15.7068 12.501 15.3593 11.0656 15.3593 9.60878V3.86626C15.3592 1.73111 17.0639 0 19.1655 0Z" fill="#D9D9D9"/>
<path d="M3.80537 0H7.83481C9.93639 0 11.6401 1.73111 11.6401 3.86632V7.96012C11.6401 10.0953 9.93634 11.8264 7.83481 11.8264H7.43704C7.1028 11.8264 6.78888 11.994 6.60014 12.2744C6.41051 12.5548 6.36995 12.9119 6.48987 13.2287L8.76341 19.2126C8.88423 19.5298 8.84278 19.8869 8.6532 20.1669C8.46446 20.4473 8.15138 20.6149 7.81625 20.6149H5.14145C4.76403 20.6149 4.4174 20.4016 4.2419 20.0621L1.01244 13.7918C0.34751 12.501 4.29153e-05 11.0657 4.29153e-05 9.60878V3.86626C4.29153e-05 1.73111 1.70384 0 3.80537 0Z" fill="#D9D9D9"/>
</svg>
